# xmcd
#
# Track frame offsets: 
#        150
#        12240
#        24700
#        33835
#        45735
#        55477
#        64675
#        77005
#        91430
#        101672
#        114370
#        125630
#        139672
#        151785
#        164985
#        178625
#
# Disc length: 2533 seconds
#
# Revision: 0
# Processed by: cddbd v1.5.2PL0 Copyright (c) Steve Scherf et al.
# Submitted via: ExactAudioCopy v1.0b4
#
DISCID=d409e310
DTITLE=Neil Christian and The Crusaders - Featuring Jimmy Page, Ritchie 
DTITLE=Blackmore, And Nicky Hopkins
DYEAR=1900
DGENRE=Rock
TTITLE0=The Road To Love
TTITLE1=Big Beat Drum
TTITLE2=A Little Bit Of Something Else
TTITLE3=Get A Load Of This
TTITLE4=Honey Hush
TTITLE5=One For The Money
TTITLE6=Crusading
TTITLE7=Let Me In
TTITLE8=I Like It
TTITLE9=That's Nice
TTITLE10=Two At A Time
TTITLE11=Bit By Bit
TTITLE12=My Baby Left Me
TTITLE13=Yaketty Yak
TTITLE14=Dedicated Follower Of Fashion
TTITLE15=Feel In The Mood
EXTD=
EXTT0=
EXTT1=
EXTT2=
EXTT3=
EXTT4=
EXTT5=
EXTT6=
EXTT7=
EXTT8=
EXTT9=
EXTT10=
EXTT11=
EXTT12=
EXTT13=
EXTT14=
EXTT15=
PLAYORDER=
